<?xml version="1.0" encoding="UTF-8"?>
<svg xmlns="http://www.w3.org/2000/svg" xmlns:xlink="http://www.w3.org/1999/xlink" viewBox="0 0 21 21" width="21px" height="21px">
<g id="surface35505303">
<path style=" stroke:none;fill-rule:nonzero;fill:rgb(100%,100%,100%);fill-opacity:1;" d="M 8.820312 1.261719 C 4.878906 1.261719 1.679688 4.460938 1.679688 8.398438 C 1.679688 12.339844 4.878906 15.539062 8.820312 15.539062 C 10.378906 15.539062 11.820312 15.039062 12.992188 14.1875 L 18.519531 19.699219 L 19.699219 18.519531 L 14.242188 13.046875 C 15.3125 11.796875 15.960938 10.171875 15.960938 8.398438 C 15.960938 4.460938 12.757812 1.261719 8.820312 1.261719 Z M 8.820312 2.101562 C 12.304688 2.101562 15.121094 4.914062 15.121094 8.398438 C 15.121094 11.882812 12.304688 14.699219 8.820312 14.699219 C 5.335938 14.699219 2.519531 11.882812 2.519531 8.398438 C 2.519531 4.914062 5.335938 2.101562 8.820312 2.101562 Z M 8.820312 2.101562 "/>
</g>
</svg>
